<svg xmlns="http://www.w3.org/2000/svg" width="2949.333" height="2949.333" preserveAspectRatio="xMidYMid meet" version="1.0" viewBox="0 0 2212 2212"><metadata>Created by potrace 1.11, written by Peter Selinger 2001-2013</metadata><g fill="#000" stroke="none"><path d="M10529 20936 c-2 -2 -71 -7 -154 -10 -82 -4 -172 -9 -200 -10 -206 -14 -263 -18 -285 -21 -14 -2 -61 -6 -105 -10 -44 -3 -91 -8 -105 -10 -14 -2 -52 -6 -85 -10 -33 -3 -78 -8 -100 -11 -22 -2 -56 -7 -75 -9 -68 -8 -195 -25 -220 -30 -14 -2 -43 -6 -65 -10 -115 -17 -267 -41 -320 -52 -11 -2 -36 -6 -55 -9 -19 -3 -54 -10 -78 -15 -23 -5 -59 -12 -80 -15 -20 -3 -45 -7 -54 -10 -10 -3 -29 -7 -44 -10 -52 -9 -252 -54 -358 -79 -60 -15 -116 -28 -125 -30 -169 -40 -766 -214 -861 -252 -8 -3 -19 -7 -25 -9 -80 -23 -609 -225 -730 -278 -16 -8 -84 -37 -150 -66 -241 -106 -626 -298 -870 -435 -27 -16 -66 -37 -85 -48 -130 -72 -458 -277 -620 -387 -139 -94 -443 -312 -460 -330 -3 -3 -23 -19 -45 -35 -47 -35 -39 -29 -185 -146 -124 -100 -274 -227 -330 -279 -9 -8 -34 -30 -55 -49 -116 -99 -476 -451 -630 -616 -69 -74 -188 -205 -226 -250 -19 -21 -41 -46 -49 -55 -172 -184 -679 -815 -810 -1010 -8 -12 -22 -32 -31 -44 -177 -236 -470 -701 -692 -1096 -82 -146 -407 -805 -407 -825 0 -2 -12 -30 -26 -62 -15 -32 -49 -114 -76 -183 -27 -69 -53 -134 -58 -145 -35 -74 -186 -518 -246 -725 -69 -235 -161 -610 -190 -770 -2 -14 -7 -36 -9 -50 -17 -86 -32 -171 -50 -282 -3 -18 -7 -44 -10 -58 -2 -14 -7 -50 -10 -80 -3 -30 -8 -62 -10 -70 -4 -16 -9 -59 -21 -175 -3 -38 -8 -78 -9 -87 -2 -9 -6 -54 -10 -100 -3 -46 -8 -103 -10 -128 -25 -275 -25 -1000 0 -1220 2 -19 6 -73 10 -120 3 -47 8 -98 10 -115 2 -16 6 -59 10 -95 6 -63 9 -86 19 -160 3 -19 8 -57 11 -85 3 -27 10 -72 15 -100 5 -27 12 -68 15 -90 8 -54 13 -85 31 -185 9 -47 18 -96 20 -110 18 -104 144 -631 176 -730 17 -55 24 -76 69 -220 40 -129 169 -493 189 -535 5 -11 23 -55 39 -97 17 -42 39 -96 50 -120 117 -262 159 -351 246 -523 115 -226 161 -312 217 -404 21 -34 38 -65 38 -67 0 -7 152 -252 239 -384 31 -48 61 -93 66 -102 114 -183 500 -684 714 -928 36 -41 71 -80 76 -86 302 -343 844 -860 1169 -1114 10 -8 33 -27 50 -41 57 -48 413 -313 518 -386 105 -72 356 -233 364 -233 3 0 78 -46 167 -103 89 -57 176 -112 194 -123 18 -10 63 -38 100 -60 37 -23 84 -51 103 -62 19 -10 69 -39 110 -64 74 -44 146 -84 325 -180 50 -27 196 -102 325 -166 201 -101 305 -150 555 -262 91 -41 409 -170 525 -214 69 -26 134 -51 145 -56 57 -25 428 -150 610 -205 137 -42 380 -113 410 -120 11 -2 65 -16 120 -31 55 -14 107 -27 115 -29 8 -2 71 -17 140 -34 137 -33 405 -91 545 -116 50 -10 99 -19 110 -21 11 -2 63 -11 115 -19 52 -9 107 -18 123 -20 52 -9 82 -14 127 -20 25 -3 88 -12 140 -20 52 -8 122 -16 155 -19 33 -4 73 -8 90 -11 35 -5 133 -16 190 -20 22 -2 63 -6 90 -9 28 -3 86 -8 130 -11 44 -3 105 -8 135 -10 336 -27 1195 -28 1565 0 213 15 307 24 463 40 23 3 63 7 90 10 26 3 63 7 82 10 19 3 55 7 80 10 67 7 309 42 349 50 10 2 36 6 57 9 22 4 64 11 94 16 30 5 69 12 85 14 17 3 55 10 85 16 30 7 69 14 85 16 140 24 674 149 865 204 41 12 83 23 92 25 54 12 597 181 648 202 8 3 20 7 25 9 68 18 615 228 742 285 24 10 45 19 48 19 2 0 28 11 57 24 359 162 476 217 674 317 127 64 257 131 288 148 31 17 82 45 114 62 103 57 309 174 352 201 14 8 140 86 280 173 484 300 567 354 825 544 111 82 407 314 441 346 6 5 33 28 59 50 27 22 58 49 71 60 12 11 37 33 55 49 271 235 656 616 865 856 21 25 44 50 50 55 40 37 316 374 445 545 213 280 480 680 616 920 11 19 36 62 55 95 79 134 368 700 368 720 0 2 14 35 31 72 215 469 456 1218 553 1723 34 174 65 344 70 380 3 25 8 54 10 65 7 38 21 138 31 220 3 28 8 66 10 85 10 73 21 181 31 295 3 44 7 96 9 115 25 260 25 998 0 1230 -2 19 -6 70 -9 113 -4 43 -8 92 -10 110 -3 18 -8 59 -11 92 -10 100 -16 147 -25 210 -5 33 -12 80 -15 105 -8 62 -45 282 -49 289 -2 3 -7 29 -10 56 -4 28 -11 66 -16 85 -5 19 -12 49 -14 65 -10 53 -46 213 -71 310 -9 33 -18 71 -20 85 -3 14 -12 48 -20 75 -115 397 -156 529 -240 760 -47 129 -153 402 -180 460 -7 17 -39 89 -70 160 -97 222 -296 620 -421 843 -13 23 -36 63 -51 90 -14 26 -56 97 -92 157 -36 61 -70 118 -76 127 -68 117 -316 492 -437 660 -501 703 -1090 1372 -1697 1928 -85 78 -284 248 -386 330 -44 35 -82 67 -85 70 -3 3 -23 19 -45 36 -22 16 -78 59 -125 95 -284 217 -693 490 -995 665 -27 16 -57 34 -67 39 -43 26 -258 143 -303 165 -27 14 -52 27 -55 30 -3 3 -80 43 -171 88 -144 71 -236 113 -449 210 -25 11 -97 41 -160 67 -63 27 -128 54 -145 61 -280 117 -936 337 -1195 400 -8 2 -85 22 -170 44 -177 46 -573 135 -640 145 -25 3 -61 10 -80 15 -19 5 -64 14 -100 19 -36 6 -76 13 -90 16 -13 2 -40 7 -60 10 -20 3 -47 8 -60 10 -14 3 -41 7 -60 10 -19 2 -48 6 -65 9 -34 6 -240 34 -300 41 -22 3 -56 7 -75 10 -19 2 -60 7 -90 10 -30 3 -71 8 -90 10 -42 5 -131 13 -220 20 -36 3 -90 7 -120 10 -30 3 -98 7 -150 11 -52 3 -129 8 -170 11 -86 6 -1306 14 -1311 9z m1101 -1800 c36 -3 106 -8 155 -11 159 -12 189 -14 230 -19 22 -3 72 -8 110 -12 39 -3 77 -7 85 -9 8 -1 40 -6 70 -9 30 -4 73 -9 95 -12 57 -7 356 -53 380 -58 18 -3 151 -28 215 -40 149 -26 486 -108 825 -200 62 -16 430 -134 460 -146 11 -5 79 -30 150 -56 134 -48 350 -132 420 -164 22 -10 94 -41 160 -70 213 -94 546 -261 775 -389 391 -220 891 -560 1195 -812 52 -43 231 -195 241 -204 6 -5 44 -39 85 -75 83 -72 487 -474 564 -561 127 -141 176 -198 221 -254 26 -33 51 -62 55 -65 10 -8 242 -311 280 -365 18 -27 37 -52 40 -55 29 -24 329 -500 419 -665 18 -33 41 -73 50 -90 37 -66 219 -435 225 -455 3 -9 24 -58 44 -103 10 -23 29 -67 41 -97 12 -30 26 -64 31 -75 30 -70 133 -355 169 -467 l18 -57 -52 21 c-28 11 -73 29 -101 40 -97 38 -364 128 -425 143 -8 2 -76 20 -150 39 -180 48 -472 106 -685 136 -44 6 -91 13 -105 15 -28 4 -89 12 -150 20 -22 3 -57 7 -77 10 -21 3 -63 7 -93 10 -30 2 -77 7 -105 10 -108 12 -197 20 -320 31 -44 3 -93 8 -110 9 -16 2 -68 6 -115 10 -47 3 -98 8 -115 10 -16 2 -66 7 -110 10 -44 3 -102 8 -130 10 -180 15 -326 19 -675 19 -394 0 -523 -5 -730 -29 -19 -2 -60 -7 -90 -10 -105 -11 -299 -46 -503 -90 -10 -2 -52 -14 -95 -25 -42 -12 -84 -23 -92 -25 -8 -2 -42 -12 -75 -23 -510 -167 -889 -423 -1147 -773 -30 -41 -67 -94 -82 -118 -25 -38 -129 -237 -132 -251 0 -3 -6 -18 -14 -35 -43 -102 -133 -380 -165 -513 -11 -44 -54 -240 -59 -267 -3 -16 -8 -39 -10 -50 -2 -11 -7 -49 -11 -85 -4 -36 -9 -74 -11 -85 -11 -57 -19 -210 -19 -375 1 -207 6 -288 31 -437 3 -18 5 -35 5 -38 1 -2 7 -33 16 -67 8 -35 17 -74 19 -88 3 -14 26 -86 50 -160 84 -251 229 -509 397 -709 119 -142 298 -314 422 -406 22 -17 44 -33 50 -38 139 -106 341 -233 540 -339 150 -81 427 -214 520 -250 28 -11 68 -28 90 -38 22 -11 96 -42 165 -70 69 -28 145 -59 170 -70 25 -10 155 -62 290 -116 276 -109 446 -179 544 -224 37 -16 69 -30 72 -30 7 0 287 -140 339 -170 109 -61 134 -77 190 -114 33 -22 62 -43 63 -48 2 -4 8 -8 14 -8 14 0 145 -109 210 -176 90 -92 208 -261 208 -298 0 -6 4 -16 9 -22 12 -13 46 -127 60 -203 17 -86 11 -258 -11 -360 -54 -250 -202 -528 -417 -787 -99 -118 -141 -164 -261 -284 -275 -276 -563 -522 -710 -606 -606 -345 -1367 -661 -2050 -849 -128 -36 -162 -45 -183 -50 -10 -2 -27 -7 -37 -10 -10 -3 -28 -8 -39 -10 -12 -3 -30 -7 -41 -10 -11 -3 -30 -7 -41 -10 -12 -2 -80 -18 -153 -34 -194 -45 -554 -112 -671 -126 -27 -3 -61 -8 -75 -10 -14 -3 -43 -7 -65 -10 -22 -3 -51 -8 -65 -10 -14 -3 -50 -7 -80 -10 -30 -3 -71 -7 -90 -10 -19 -3 -66 -7 -105 -11 -38 -3 -88 -8 -110 -10 -22 -2 -78 -6 -125 -9 -47 -4 -96 -8 -109 -10 -149 -24 -1023 -23 -1331 0 -243 19 -361 30 -440 40 -19 2 -57 7 -85 10 -60 7 -390 54 -425 60 -14 3 -41 8 -60 11 -75 11 -252 46 -410 80 -91 20 -172 37 -180 39 -8 2 -62 15 -120 30 -58 15 -113 28 -123 30 -10 2 -32 9 -50 15 -18 5 -81 24 -142 41 -669 187 -1328 462 -2000 834 -115 64 -323 193 -355 221 -234 202 -408 368 -535 509 -44 49 -87 96 -96 105 -32 34 -177 227 -225 300 -105 159 -216 412 -238 540 -3 19 -9 49 -12 65 -13 64 -10 232 6 310 18 89 47 183 63 203 5 6 7 12 4 12 -11 0 64 123 116 190 226 294 593 506 1497 864 162 65 304 121 315 126 11 5 88 37 170 70 656 268 1101 515 1460 810 38 32 281 274 321 321 73 84 273 382 283 421 1 4 17 40 35 80 28 61 88 211 91 228 1 3 11 37 23 75 11 39 23 81 25 95 3 14 10 43 15 65 10 38 13 57 27 150 3 22 8 51 10 65 17 95 24 466 11 580 -21 185 -33 280 -42 320 -3 14 -8 36 -10 50 -26 152 -85 376 -144 545 -74 214 -77 222 -136 340 -246 501 -698 854 -1355 1059 -64 20 -127 39 -139 41 -12 2 -30 7 -40 10 -10 3 -27 8 -37 10 -10 2 -52 11 -93 20 -99 22 -123 26 -210 40 -19 3 -46 7 -60 10 -14 3 -47 7 -75 11 -27 3 -57 8 -66 9 -9 2 -52 6 -95 10 -43 3 -86 8 -94 10 -76 19 -880 28 -1120 12 -211 -13 -255 -16 -325 -22 -38 -4 -95 -8 -125 -11 -30 -2 -75 -7 -100 -9 -46 -5 -116 -11 -230 -20 -36 -3 -86 -7 -112 -10 -27 -3 -69 -7 -95 -10 -27 -2 -77 -7 -113 -11 -36 -4 -76 -8 -90 -9 -93 -9 -217 -24 -250 -31 -14 -2 -45 -6 -69 -9 -71 -7 -149 -19 -268 -40 -16 -3 -55 -10 -88 -15 -33 -5 -72 -12 -87 -15 -40 -8 -328 -73 -368 -84 -19 -5 -69 -18 -110 -29 -78 -20 -347 -110 -462 -155 l-66 -25 8 26 c112 352 243 672 420 1023 190 380 430 764 697 1117 69 92 129 169 132 172 3 3 18 21 33 42 15 20 33 42 40 50 7 7 51 58 98 113 117 137 192 218 340 370 786 805 1749 1455 2848 1921 17 8 47 20 65 28 253 108 792 291 1097 372 30 8 69 19 85 24 17 5 41 12 55 14 14 3 81 19 150 36 196 47 528 115 655 134 23 4 50 8 62 10 24 5 57 10 168 26 44 6 91 13 105 15 14 3 50 7 80 10 30 3 64 7 75 9 11 2 52 7 92 11 40 4 85 8 100 10 15 2 73 7 128 10 55 4 108 9 118 11 10 1 88 6 175 10 86 3 159 8 161 10 6 6 874 -4 951 -10z m-4924 -6640 c171 -22 334 -79 514 -177 125 -69 304 -235 387 -359 92 -138 151 -278 177 -425 13 -75 15 -310 3 -360 -3 -11 -10 -40 -16 -65 -17 -68 -18 -72 -34 -116 -57 -156 -186 -350 -299 -446 -24 -20 -54 -47 -68 -59 -46 -40 -174 -120 -250 -156 -191 -90 -362 -130 -575 -135 -78 -1 -243 10 -257 18 -4 3 -26 7 -50 10 -24 4 -89 21 -144 39 -420 137 -717 439 -821 833 -22 83 -26 119 -26 252 -1 176 16 263 81 419 88 210 292 437 492 548 95 53 129 70 180 90 66 26 174 59 215 67 17 4 41 8 55 11 14 3 52 8 85 11 33 4 61 8 63 9 5 4 244 -4 288 -9z m9079 -1 c17 -3 44 -7 60 -10 258 -43 512 -173 695 -354 177 -176 283 -375 323 -608 14 -81 15 -264 3 -333 -42 -236 -139 -423 -310 -600 -143 -149 -313 -254 -521 -322 -125 -41 -162 -48 -305 -64 -95 -11 -269 -5 -360 11 -411 72 -752 310 -929 646 -159 303 -163 655 -10 960 60 120 124 207 227 309 223 218 464 328 822 373 37 5 270 -1 305 -8z" transform="translate(0.000000,2212.000000) scale(0.100000,-0.100000)"/><path d="M10918 9935 c-2 -1 -48 -5 -103 -8 -55 -4 -109 -8 -120 -10 -11 -3 -47 -8 -80 -12 -33 -3 -82 -11 -110 -16 -27 -6 -61 -13 -75 -15 -291 -57 -619 -204 -779 -350 -69 -63 -135 -154 -167 -229 -25 -59 -29 -83 -28 -155 0 -101 19 -163 76 -252 107 -167 337 -318 633 -417 66 -22 131 -42 145 -45 14 -3 56 -12 93 -21 37 -8 80 -17 95 -20 15 -3 36 -7 47 -9 11 -2 43 -7 70 -10 28 -4 61 -9 75 -11 140 -22 616 -23 725 -1 11 2 47 7 80 10 33 4 132 23 219 42 565 125 934 399 951 704 14 265 -226 513 -653 671 -96 36 -300 91 -382 104 -19 3 -60 10 -90 15 -30 5 -77 12 -105 15 -27 3 -72 8 -100 11 -50 6 -411 14 -417 9z" transform="translate(0.000000,2212.000000) scale(0.100000,-0.100000)"/><path d="M8880 8241 c-27 -51 1 -164 79 -326 115 -235 267 -433 498 -646 143 -132 391 -290 583 -369 41 -17 84 -35 95 -40 100 -46 408 -124 575 -146 25 -3 55 -7 68 -9 54 -9 217 -18 336 -19 562 -5 1114 160 1491 447 145 111 286 258 390 407 47 67 135 218 135 231 0 5 6 20 14 32 27 41 68 181 73 249 4 53 2 74 -11 93 -33 50 -99 24 -256 -102 -369 -296 -666 -466 -1000 -571 -65 -20 -248 -62 -302 -68 -29 -4 -56 -8 -59 -10 -43 -25 -600 -25 -736 0 -16 3 -45 8 -138 22 -65 10 -265 57 -361 85 -455 131 -781 297 -1203 612 -199 149 -247 171 -271 128z" transform="translate(0.000000,2212.000000) scale(0.100000,-0.100000)"/></g></svg>